# xmcd
#
# Track frame offsets:
#	150
#	19631
#	37786
#	55610
#	72380
#	91964
#	111738
#	130433
#	150173
#	168868
#
# Disc length: 2471 seconds
#
# Revision: 1
# Processed by: cddbd v1.5.2PL0 Copyright (c) Steve Scherf et al.
# Submitted via: audiograbber 1.83.01
#
DISCID=7609a50a
DTITLE=Joe Zelek - Sparkling True
DYEAR=2006
DGENRE=Country
TTITLE0=Sparkling True
TTITLE1=Country Soul
TTITLE2=Saturday Night
TTITLE3=Homecoming King
TTITLE4=Nothing I Can Do
TTITLE5=Her Love Is On The Interstate
TTITLE6=Who Am I
TTITLE7=Something 'Bout Not Knowing
TTITLE8=Yours For The Breaking
TTITLE9=I'm So Lonesome I Could Cry
EXTD=
EXTT0=
EXTT1=
EXTT2=
EXTT3=
EXTT4=
EXTT5=
EXTT6=
EXTT7=
EXTT8=
EXTT9=
PLAYORDER=
